<?xml version="1.0" encoding="UTF-8"?>
<svg width="15.125mm" height="15.125mm" version="1.1" viewBox="0 0 15.125 15.125" xmlns="http://www.w3.org/2000/svg" xmlns:cc="http://creativecommons.org/ns#" xmlns:dc="http://purl.org/dc/elements/1.1/" xmlns:rdf="http://www.w3.org/1999/02/22-rdf-syntax-ns#">
 <defs>
  <style>.cls-1{fill:#539350;}.cls-2{font-size:19.8px;fill:#221f20;font-family:2MASSJ1808-Normal, "2MASS J1808";}.cls-3{letter-spacing:0em;}.cls-4{letter-spacing:-0.02em;}</style>
 </defs>
 <metadata>
  <rdf:RDF>
   <cc:Work rdf:about="">
    <dc:format>image/svg+xml</dc:format>
    <dc:type rdf:resource="http://purl.org/dc/dcmitype/StillImage"/>
   </cc:Work>
  </rdf:RDF>
 </metadata>
 <g transform="translate(-79.416 -173.53)" style="fill:#fff;stroke-width:1.35;stroke:#fffefe">
  <path class="cls-1" d="m88 176.69c-3.7624-0.87312-7.2655 0.39423-7.8343 2.8178-0.56885 2.4236 2.0294 5.1065 5.7917 5.9796 0.20902 0.0476 0.4154 0.0873 0.61912 0.12435 0.49308 0.0917 0.98436 0.12841 1.5187 0.14817 2.8734 0.0688 5.2414-1.1298 5.6965-3.0877 0.56621-2.4289-2.0267-5.1065-5.7917-5.9822z" style="fill:#fff;stroke-width:1.35;stroke:#fffefe"/>
 </g>
 <g transform="translate(-75.157 -173.24)">
  <path class="cls-1" d="m83.741 176.41c-3.7624-0.87312-7.2655 0.39423-7.8343 2.8178-0.56885 2.4236 2.0294 5.1065 5.7917 5.9796 0.20902 0.0476 0.4154 0.0873 0.61912 0.12435l-2.3098-4.0481 0.59531-0.33867 2.1669 3.7968v-5.4372h0.68527v5.4557l1.7515-3.1062 0.59796 0.33602-1.9685 3.4899c2.8734 0.0688 5.2414-1.1298 5.6965-3.0877 0.56621-2.4289-2.0267-5.1065-5.7917-5.9822z" style="fill:#539350;stroke-width:.26458"/>
 </g>
</svg>
